<svg width="501" height="501" viewBox="0 0 501 501" fill="none" xmlns="http://www.w3.org/2000/svg">
<path fill-rule="evenodd" clip-rule="evenodd" d="M86.521 170.324C86.271 297.573 156.021 349.573 304.02 332.573C327.27 329.823 327.27 329.573 308.77 342.573C287.77 357.323 242.771 401.073 245.021 404.823C251.27 414.823 270.77 405.576 299.52 379.326C326.77 354.326 359.27 332.323 381.77 323.823C420.52 309.073 424.27 295.823 391.27 290.823C365.02 286.823 347.77 278.826 306.27 250.576C272.52 227.574 265.02 225.574 249.021 233.824C227.271 245.074 239.52 260.073 299.27 295.323C318.52 306.573 316.52 307.823 275.52 307.823C162.27 307.823 109.02 231.824 132.02 103.824C135.77 83.5738 86.771 77.824 86.521 170.324Z" fill="black"/>
</svg>
