<svg xmlns="http://www.w3.org/2000/svg" fill="none" viewBox="0 0 250 250">
  
<g transform="matrix(1,0,0,1,0,0)"><path fill="#ffffff" fill-rule="evenodd" stroke="#000000" stroke-linecap="round" stroke-linejoin="round" stroke-miterlimit="1.5" stroke-width="6" d="M97.0219 197.24C83.7704 196.666 44.2745 192.384 34.5341 184.951C33.8879 174.431 42.5652 129.868 48.8722 119.108C66.5595 88.9349 103.687 82.2208 134.898 76.3838C133.567 68.4861 134.228 60.4573 133.708 52.5C161.799 59.7274 190.254 70.4897 215.975 83.9203C204.043 108.728 177.001 130.763 155.753 147.659C153.523 142.996 148.935 130.539 147.596 125.577C135.275 127.744 121.825 129.792 111.459 137.38C96.4884 148.338 97.4186 179.997 97.0219 197.24V197.24Z" clip-rule="evenodd"></path></g></svg>