<svg xmlns="http://www.w3.org/2000/svg" fill="none" viewBox="0 0 250 250">
  
  
<g transform="matrix(0.625,0,0,0.625,0,0)"><path fill="#ffffff" fill-rule="evenodd" d="M87.2009 280.086C148.377 281.843 201.903 281.727 255.49 280.684C280.714 280.193 321.253 281.899 334.748 270.362C354.281 253.663 353.178 180.527 352.221 156.431C351.821 146.363 350.483 132.968 339.626 127.735C320.127 118.337 293.499 119.617 272.687 119.162C215.992 117.921 149.428 118.538 92.6017 120.073C82.7185 120.339 68.991 120.878 60.7582 127.213C45.6285 138.855 46.6047 204.41 47.3547 223.648C48.2302 246.108 46.7529 277.645 76.131 277.615" clip-rule="evenodd"></path><path stroke="#000000" stroke-linecap="round" stroke-linejoin="round" stroke-miterlimit="1.5" stroke-width="4.816" d="M84.6343 279.42C88.2329 279.524 92.6495 280.425 96.1968 280.516M339.626 127.735C334.994 125.502 329.959 123.872 324.695 122.678M92.6017 120.073C87.9168 120.199 82.3681 120.387 76.9503 121.224M76.131 277.615C69.6059 277.621 64.6029 276.071 60.7582 273.408M55.2707 267.89C52.1518 263.439 50.3533 257.796 49.2807 251.688M48.1876 242.84C47.7299 237.233 47.6167 231.531 47.4455 226.227M47.2243 219.827C47.0915 215.347 46.9833 209.491 47.0021 202.888M47.0758 195.545C47.1606 190.674 47.3233 185.554 47.5976 180.392M48.0095 173.815C48.4141 168.248 48.9651 162.732 49.7048 157.529M51.0397 149.589C52.2242 143.604 53.7364 138.316 55.6578 134.225M58.9153 128.982C59.5014 128.3 60.1153 127.708 60.7582 127.213C63.5905 125.034 67.0731 123.541 70.8257 122.508M99.0473 119.904C103.151 119.799 107.3 119.7 111.488 119.605M118.196 119.459C122.642 119.366 127.126 119.278 131.64 119.197M138.352 119.082C142.582 119.012 146.836 118.948 151.106 118.89M158.291 118.89C162.358 118.84 166.42 118.795 170.475 118.755M177.353 118.692C181.686 118.655 186.01 118.625 190.321 118.602M197.508 118.569C202.214 118.551 206.903 118.543 211.572 118.543M218.76 118.551C223.577 118.561 228.371 118.582 233.136 118.613M239.7 118.664C244.302 118.705 248.877 118.756 253.419 118.819M260.759 118.932C264.762 118.999 268.739 119.075 272.687 119.162C273.495 119.179 274.312 119.195 275.137 119.208M281.537 119.283C285.955 119.326 290.534 119.367 295.171 119.505M302.356 119.808C307.353 120.09 312.357 120.541 317.241 121.282M344.953 131.639C348.233 135.142 350.002 139.787 350.984 144.601M351.94 151.61C352.076 153.268 352.16 154.889 352.221 156.431C352.303 158.481 352.385 160.885 352.456 163.579M352.595 170.456C352.657 174.849 352.677 179.719 352.616 184.883M352.477 192.236C352.365 196.513 352.192 200.921 351.94 205.369M351.389 213.522C351.024 218.137 350.562 222.735 349.986 227.217M348.929 234.474C348.111 239.455 347.126 244.207 345.943 248.576M343.52 256.186C341.589 261.334 339.268 265.621 336.483 268.674M331.918 272.369C328.394 274.467 323.784 276.019 318.486 277.169M310.269 278.585C305.258 279.26 299.887 279.695 294.404 279.979M287.23 280.271C282.654 280.413 278.073 280.477 273.629 280.517M265.039 280.576C261.688 280.598 258.481 280.625 255.49 280.684C253.049 280.731 250.607 280.777 248.165 280.82M239.723 280.963C234.556 281.045 229.383 281.118 224.196 281.18M213.883 281.29C208.334 281.341 202.764 281.381 197.166 281.406M188.259 281.436C182.516 281.448 176.737 281.445 170.916 281.426M162.323 281.388C157.051 281.358 151.741 281.314 146.386 281.257M137.475 281.149C132.15 281.078 126.777 280.992 121.352 280.892M114.014 280.749C110.547 280.677 107.058 280.6 103.544 280.516"></path></g></svg>