<svg xmlns="http://www.w3.org/2000/svg" fill="none" viewBox="0 0 250 250">
  
  
  
  
  
  
  
  
  
  
  
  
  
  
  
  
  
<g transform="matrix(1.0416666666666667,0,0,1.0416666666666667,0,0)"><path stroke="#000000" stroke-linecap="round" stroke-linejoin="round" stroke-miterlimit="1.5" stroke-width="5" d="M14.5 124.05C16.1489 121.462 18.2978 117.906 20.7483 115.883"></path><path stroke="#000000" stroke-linecap="round" stroke-linejoin="round" stroke-miterlimit="1.5" stroke-width="5" d="M22.7971 123.723C24.8572 121.379 26.7933 118.032 29.4111 116.229"></path><path stroke="#000000" stroke-linecap="round" stroke-linejoin="round" stroke-miterlimit="1.5" stroke-width="5" d="M36.8381 123.559C38.889 121.019 41.0645 118.022 43.5352 115.883"></path><path stroke="#000000" stroke-linecap="round" stroke-linejoin="round" stroke-miterlimit="1.5" stroke-width="5" d="M50.6665 124.035C52.7693 121.422 54.9967 118.626 57.3556 116.229"></path><path stroke="#000000" stroke-linecap="round" stroke-linejoin="round" stroke-miterlimit="1.5" stroke-width="5" d="M64.495 123.105C66.4582 120.267 69.1215 116.883 72.0179 114.846"></path><path stroke="#000000" stroke-linecap="round" stroke-linejoin="round" stroke-miterlimit="1.5" stroke-width="5" d="M75.7688 125.024C78.1466 121.961 81.0109 118.104 83.9842 115.537"></path><path stroke="#000000" stroke-linecap="round" stroke-linejoin="round" stroke-miterlimit="1.5" stroke-width="5" d="M89.5973 123.642C91.7356 120.519 94.4256 116.963 97.65 114.846"></path><path stroke="#000000" stroke-linecap="round" stroke-linejoin="round" stroke-miterlimit="1.5" stroke-width="5" d="M103.426 124.332C105.973 120.983 109.001 118.063 111.694 114.846"></path><path stroke="#000000" stroke-linecap="round" stroke-linejoin="round" stroke-miterlimit="1.5" stroke-width="5" d="M120.232 124.254C122.34 121.256 124.653 117.73 127.683 115.537"></path><path stroke="#000000" stroke-linecap="round" stroke-linejoin="round" stroke-miterlimit="1.5" stroke-width="5" d="M131.295 125.012C133.726 121.44 136.876 117.847 140.312 115.191"></path><path stroke="#000000" stroke-linecap="round" stroke-linejoin="round" stroke-miterlimit="1.5" stroke-width="5" d="M142.358 124.331C145.094 121.015 148.655 116.946 152.307 114.5"></path><path stroke="#000000" stroke-linecap="round" stroke-linejoin="round" stroke-miterlimit="1.5" stroke-width="5" d="M156.399 123.517C159.151 120.574 162.19 116.598 165.708 114.5"></path><path stroke="#000000" stroke-linecap="round" stroke-linejoin="round" stroke-miterlimit="1.5" stroke-width="5" d="M167.462 124.116C170.015 121.213 172.714 116.802 176.19 114.846"></path><path stroke="#000000" stroke-linecap="round" stroke-linejoin="round" stroke-miterlimit="1.5" stroke-width="5" d="M181.29 122.243C183.723 119.742 186.309 116.508 189.448 114.846"></path><path stroke="#000000" stroke-linecap="round" stroke-linejoin="round" stroke-miterlimit="1.5" stroke-width="5" d="M192.353 122.761C195.029 120.3 198.283 116.423 201.698 114.846"></path><path stroke="#000000" stroke-linecap="round" stroke-linejoin="round" stroke-miterlimit="1.5" stroke-width="5" d="M203.628 123.178C206.726 120.796 209.64 118.177 212.805 115.883"></path><path stroke="#000000" stroke-linecap="round" stroke-linejoin="round" stroke-miterlimit="1.5" stroke-width="5" d="M217.457 122.973C219.813 120.194 222.493 116.966 225.479 114.846"></path></g></svg>