<svg xmlns="http://www.w3.org/2000/svg" fill="none" viewBox="0 0 250 250">
  
<g transform="matrix(0.5952380952380952,0,0,0.5952380952380952,0,0)"><path stroke="#000000" stroke-linecap="round" stroke-linejoin="round" stroke-miterlimit="1.5" stroke-width="4.05" d="M89.7605 214.11C104.967 211.578 121.135 211.788 136.491 211.043C175.361 209.156 214.16 208.971 253.086 208.794C272.452 208.707 316.655 206.489 334.349 212.11C335.172 212.372 332.621 212.129 331.757 212.155C329.86 212.213 327.967 212.394 326.071 212.435C320.47 212.557 314.883 212.28 309.289 212.22C292.382 212.038 275.576 212.847 258.682 213.407C232.217 214.283 205.795 213.214 179.323 213.414C154.899 213.599 130.533 215.168 106.091 214.872C91.453 214.696 76.666 215.087 62.0272 215.569C57.7153 215.711 53.4035 216.04 49.0931 216.245C45.7474 216.404 41.406 216.585 41.4754 216.568C56.7492 212.627 73.3577 212.925 88.9587 211.472C126.265 207.997 163.516 207.667 200.925 206.403C250.861 204.716 300.388 205.887 350.31 206.448C371.936 206.69 395.163 204.511 416.667 207.307C418.244 207.511 413.509 206.926 411.922 206.826C408.508 206.612 405.098 206.369 401.691 206.062C391.4 205.135 381.134 204.845 370.815 204.483C340.197 203.407 309.253 202.966 278.638 204.459C246.345 206.033 213.665 205.057 181.326 205.065C144.635 205.075 107.859 207.349 71.2134 209.091C48.505 210.171 25.4928 209.751 3 213.307"></path></g></svg>