<svg width="19" height="20" viewBox="0 0 19 20" fill="none" xmlns="http://www.w3.org/2000/svg">
<path d="M18.3752 16.25C18.3752 16.4158 18.3093 16.5747 18.1921 16.6919C18.0749 16.8091 17.9159 16.875 17.7502 16.875H0.250183C0.0844227 16.875 -0.0745484 16.8092 -0.191759 16.6919C-0.308969 16.5747 -0.374817 16.4158 -0.374817 16.25C-0.374817 16.0842 -0.308969 15.9253 -0.191759 15.8081C-0.0745484 15.6908 0.0844227 15.625 0.250183 15.625H17.7502C17.9159 15.625 18.0749 15.6909 18.1921 15.8081C18.3093 15.9253 18.3752 16.0842 18.3752 16.25ZM0.273835 7.67021C0.236753 7.53927 0.243431 7.3998 0.292853 7.273C0.342276 7.1462 0.431741 7.03901 0.547653 6.9677L8.67265 1.9677C8.77115 1.90709 8.88453 1.875 9.00018 1.875C9.11583 1.875 9.22922 1.90709 9.32771 1.9677L17.4527 6.9677C17.5686 7.03902 17.6581 7.14621 17.7075 7.273C17.7569 7.3998 17.7636 7.53925 17.7265 7.67019C17.6895 7.80113 17.6107 7.9164 17.5022 7.99849C17.3936 8.08057 17.2613 8.12499 17.1252 8.125H15.2502V13.125H16.5002C16.6659 13.125 16.8249 13.1908 16.9421 13.3081C17.0593 13.4253 17.1252 13.5842 17.1252 13.75C17.1252 13.9158 17.0593 14.0747 16.9421 14.1919C16.8249 14.3092 16.6659 14.375 16.5002 14.375H1.50018C1.33442 14.375 1.17545 14.3092 1.05824 14.1919C0.941031 14.0747 0.875183 13.9158 0.875183 13.75C0.875183 13.5842 0.941031 13.4253 1.05824 13.3081C1.17545 13.1908 1.33442 13.125 1.50018 13.125H2.75018V8.125H0.875183C0.739101 8.12501 0.606736 8.08059 0.498198 7.99851C0.38966 7.91642 0.310883 7.80115 0.273835 7.67021ZM10.2502 12.5C10.2502 12.6658 10.316 12.8247 10.4332 12.9419C10.5505 13.0592 10.7094 13.125 10.8752 13.125C11.0409 13.125 11.1999 13.0592 11.3171 12.9419C11.4343 12.8247 11.5002 12.6658 11.5002 12.5V8.75C11.5002 8.58424 11.4343 8.42527 11.3171 8.30806C11.1999 8.19085 11.0409 8.125 10.8752 8.125C10.7094 8.125 10.5505 8.19085 10.4332 8.30806C10.316 8.42527 10.2502 8.58424 10.2502 8.75V12.5ZM6.50018 12.5C6.50018 12.6658 6.56603 12.8247 6.68324 12.9419C6.80045 13.0592 6.95942 13.125 7.12518 13.125C7.29094 13.125 7.44991 13.0592 7.56712 12.9419C7.68433 12.8247 7.75018 12.6658 7.75018 12.5V8.75C7.75018 8.58424 7.68433 8.42527 7.56712 8.30806C7.44991 8.19085 7.29094 8.125 7.12518 8.125C6.95942 8.125 6.80045 8.19085 6.68324 8.30806C6.56603 8.42527 6.50018 8.58424 6.50018 8.75V12.5Z" fill="white"/>
</svg>
