<svg xmlns="http://www.w3.org/2000/svg" fill="none" viewBox="0 0 250 250">
  
<g transform="matrix(0.5434782608695652,0,0,0.5434782608695652,0,0)"><path stroke="#000000" stroke-linecap="round" stroke-linejoin="round" stroke-miterlimit="1.5" stroke-width="4.1" d="M448.183 286.031C451.697 251.342 457.035 203.507 450.945 169.707C346.906 167.301 243.166 165.667 139.048 167.93C99.539 168.789 56.958 176.084 17.6643 171.611C19.1324 202.616 19.1773 233.58 20.3969 264.537C20.8965 277.215 25.4454 290.761 24.0821 303.433C140.582 302.559 257.175 291.978 373.755 295.748C396.1 296.471 418.683 293.106 441.022 295.764C382.111 290.805 321.877 295.117 262.836 295.858C223.364 296.354 183.883 290.425 144.271 290.715C106.815 290.989 69.3991 298.407 32.0514 297.919C23.036 253.324 11.2864 207.934 5.50301 162.764C29.3074 162.268 53.0818 158.98 76.8458 158.786C203.346 157.753 329.684 159.498 456.029 164.586C455.812 204.566 446.399 243.155 443.957 282.728C440.584 241.594 449.029 200.401 446.658 159.395C431.099 155.816 412.946 158.199 397.101 157.931C355.35 157.225 314.031 156.389 272.28 157.655C219.77 159.247 167.514 161.64 115.012 163.984C79.0258 165.589 38.8992 162.631 3.5 171.109C7.17054 214.665 11.5276 258.235 15.713 301.713"></path></g></svg>