<svg xmlns="http://www.w3.org/2000/svg" fill="none" viewBox="0 0 250 250">
  
  
<g transform="matrix(2.7777777777777777,0,0,2.7777777777777777,0,0)"><path stroke="#000000" stroke-linecap="round" stroke-linejoin="round" stroke-miterlimit="1.5" stroke-width="5" d="M71.4985 41.4088C70.0853 41.3837 66.0295 41.3298 64.6179 41.4088C62.68 37.4229 59.6236 34.3446 55.5944 32.4614C53.131 31.3095 50.1133 30.9745 48.0798 29.0343C47.2938 28.2856 46.7152 27.2856 46.2148 26.2308C44.3969 22.3976 43.4477 18.3713 42.055 14.3847C41.3648 12.4066 40.4945 9.985 38.653 8.76698C34.8919 6.28007 31.4619 10.3464 30.6676 13.7521C29.1572 20.2325 31.0154 27.1859 34.0179 32.9768C27.5162 32.3427 20.8119 32.2494 14.4332 33.8463C11.4072 34.6034 8.19054 36.3287 7.94299 39.8103C7.76833 42.2585 8.87392 44.8595 10.6797 46.5104C11.2712 47.0503 13.2084 48.3189 13.1985 48.3264C13.1393 48.3712 12.1111 51.7195 11.8787 53.0461C11.1801 57.0366 13.8789 60.0449 17.6203 60.9516C14.6982 64.3581 16.9247 71.1873 22.0732 71.8722C21.8499 79.5486 30.8286 79.9442 36.1988 80.415C50.7072 81.687 55.3203 80.6025 65.0371 78.2059C66.1138 77.9401 70.7812 77.6306 71.8906 77.6283"></path><path stroke="#000000" stroke-linecap="round" stroke-linejoin="round" stroke-miterlimit="1.5" stroke-width="5" d="M82.1037 35.9162C79.1063 35.8914 74.0252 34.5648 71.5227 36.7494C69.9656 38.1091 70.9758 42.9815 71.0067 44.8949C71.1295 52.602 71.1092 60.3105 71.1099 68.0184C71.1099 71.2327 69.6748 77.5193 72.2384 80.0647C74.6211 82.4308 79.5161 81.77 82.5497 81.8612"></path></g></svg>