<svg width="500" height="501" viewBox="0 0 500 501" fill="none" xmlns="http://www.w3.org/2000/svg">
<path fill-rule="evenodd" clip-rule="evenodd" d="M318.242 204.289C185.242 216.289 139.242 220.289 107.492 222.539C52.242 226.539 42.492 228.539 45.492 236.289C50.992 250.54 102.242 250.29 286.992 235.039C336.992 230.789 383.242 227.539 389.492 227.539C419.992 227.289 420.242 195.039 318.242 204.289ZM310.742 252.54C295.492 253.79 85.9925 273.54 70.9925 275.04C28.9925 278.79 23.242 281.79 39.992 292.54C63.242 307.29 270.742 279.04 403.492 275.29C465.242 273.54 471.742 272.29 468.242 263.54C463.492 250.04 398.742 245.539 310.742 252.54Z" fill="black"/>
</svg>
