<svg xmlns="http://www.w3.org/2000/svg" fill="none" viewBox="0 0 250 250">
  
<g transform="matrix(0.9057971014492754,0,0,0.9057971014492754,0,0)"><path fill="#000000" fill-rule="evenodd" d="M95.6722 40.1834C62.6989 46.4092 45.7513 71.0815 45.7513 113.393C45.636 156.743 89.3312 183.375 134.295 167.35L142.596 164.352C149.398 171.5 150.551 171.5 143.288 175.881C137.523 179.34 138.099 182.914 141.789 184.298C146.746 186.142 176.838 215.08 180.873 222.113C195.746 248.054 232.869 238.946 230.333 218.654C229.18 209.431 222.147 198.709 213.846 191.1C204.623 182.568 199.435 175.651 192.632 162.738C186.061 150.171 180.181 147.404 171.65 152.593C167.96 154.783 167.614 154.898 165.654 153.054C161.619 149.48 161.85 147.059 166.807 139.565C185.715 110.511 186.752 85.1471 170.035 64.9711C146.746 36.84 126.801 46.9856 140.406 55.7478C173.494 76.9614 171.765 120.08 136.486 152.593C116.886 170.693 77.4566 161.009 67.311 135.645C51.2855 95.2927 77.6867 42.0281 120.46 50.5596C135.217 54.3643 141.097 31.6519 95.6722 40.1834ZM91.0605 68.891C86.103 73.0415 89.3312 76.6155 98.5545 70.2744C105.011 65.8934 108.124 65.0863 114.004 66.4698C121.728 68.1992 126.455 66.2393 124.034 62.3194C123.227 60.9359 106.279 56.0937 91.0605 68.891ZM137.292 67.3922C131.067 67.0463 129.453 70.5051 133.718 75.0014C139.022 80.6507 149.629 81.5731 149.052 76.3849C148.707 72.8109 142.019 67.6227 137.292 67.3922ZM177.414 164.006C178.337 167.811 187.444 181.185 192.287 186.142C198.167 192.022 200.703 195.942 208.312 204.243C223.761 221.191 205.314 238.023 190.788 216.81C172.456 190.062 155.393 181.646 155.624 178.533C155.97 174.613 176.607 160.778 177.414 164.006Z" clip-rule="evenodd"></path></g></svg>